<svg width="543" height="136" viewBox="0 0 543 136" fill="none" xmlns="http://www.w3.org/2000/svg">
<g opacity="0.3">
<path d="M9.12964 102.318H59.7568V86.0567H28.1013V24.8055H9.12964V102.318Z" fill="black"/>
<path d="M63.4291 74.3485C63.4291 89.2006 74.1617 103.619 94.109 103.619C102.673 103.619 111.888 100.692 117.959 95.4884L111.021 82.3708C106.468 85.4063 101.156 88.0081 95.6267 88.0081C89.6642 88.0081 84.0269 84.8642 82.6176 78.0345H117.851C118.067 76.0831 118.284 74.1317 118.284 72.1804C118.284 56.6778 108.961 45.1864 92.4828 45.1864C74.4869 45.1864 63.4291 57.9787 63.4291 74.3485ZM83.0512 67.3019C84.0269 62.8572 86.6287 58.9544 92.0492 58.9544C96.8192 58.9544 99.7463 62.7487 99.7463 67.3019H83.0512Z" fill="black"/>
<path d="M128.083 124H146.837V103.077C146.837 100.258 146.621 98.307 146.621 98.307H146.837C150.849 101.776 155.835 103.619 161.039 103.619C175.891 103.619 187.057 92.1277 187.057 74.457C187.057 57.1115 177.084 45.1864 161.906 45.1864C155.185 45.1864 148.789 47.7883 144.994 52.8835H144.778C144.778 52.8835 144.994 51.149 144.994 49.306V46.4874H128.083V124ZM146.295 74.7822C146.295 65.1337 151.607 61.0142 157.245 61.0142C163.749 61.0142 168.194 66.4347 168.194 74.7822C168.194 83.3465 163.099 88.1165 157.245 88.1165C149.873 88.1165 146.295 81.5036 146.295 74.7822Z" fill="black"/>
<path d="M196.685 102.318H215.44V80.6363C215.44 70.4458 220.427 63.8328 230.834 63.8328C232.135 63.8328 233.978 63.9412 234.629 64.1581V45.7285C233.978 45.6201 233.219 45.5117 232.46 45.5117C224.113 45.5117 217.066 51.7994 214.681 59.3881H214.464C214.464 59.3881 214.681 57.7619 214.681 55.919V46.4874H196.685V102.318Z" fill="black"/>
<path d="M239.7 74.3485C239.7 89.2006 250.433 103.619 270.38 103.619C278.944 103.619 288.159 100.692 294.23 95.4884L287.292 82.3708C282.739 85.4063 277.427 88.0081 271.898 88.0081C265.935 88.0081 260.298 84.8642 258.889 78.0345H294.122C294.338 76.0831 294.555 74.1317 294.555 72.1804C294.555 56.6778 285.232 45.1864 268.754 45.1864C250.758 45.1864 239.7 57.9787 239.7 74.3485ZM259.322 67.3019C260.298 62.8572 262.9 58.9544 268.32 58.9544C273.09 58.9544 276.017 62.7487 276.017 67.3019H259.322Z" fill="black"/>
<path d="M302.077 63.3992C302.077 86.382 317.796 103.619 342.73 103.619C356.932 103.619 367.123 97.6565 373.952 90.6099L364.195 76.7335C358.883 82.0456 351.295 86.2736 343.598 86.2736C328.637 86.2736 321.699 74.457 321.699 62.9656C321.699 51.7994 328.095 40.8501 343.598 40.8501C350.536 40.8501 358.016 44.4276 363.003 48.7639L371.784 34.4539C364.195 26.9737 353.138 23.5046 342.73 23.5046C318.772 23.5046 302.077 40.8501 302.077 63.3992Z" fill="black"/>
<path d="M377.329 74.5654C377.329 92.0193 391.422 103.619 408.985 103.619C426.547 103.619 440.64 92.0193 440.64 74.5654C440.64 57.0031 426.547 45.1864 408.876 45.1864C391.422 45.1864 377.329 57.0031 377.329 74.5654ZM396.301 74.5654C396.301 66.1094 402.155 60.7974 408.985 60.7974C415.814 60.7974 421.669 66.1094 421.669 74.5654C421.669 82.9129 415.814 88.0081 408.985 88.0081C402.155 88.0081 396.301 82.9129 396.301 74.5654Z" fill="black"/>
<path d="M450.245 39.4407H468.567V24.8055H450.245V39.4407ZM450.029 102.318H468.783V46.4874H450.029V102.318Z" fill="black"/>
<path d="M481.366 102.318H500.12V77.0588C500.12 69.1449 503.915 62.2067 512.262 62.2067C516.382 62.2067 518.442 64.3749 518.442 69.5785V102.318H537.196V66.1094C537.196 50.3901 528.415 45.1864 517.141 45.1864C507.275 45.1864 501.963 50.4985 499.362 54.8349H499.145C499.145 54.8349 499.362 53.2087 499.362 51.3658V46.4874H481.366V102.318Z" fill="black"/>
</g>
<path d="M9.12964 95.8136H59.7568V79.5522H28.1013V18.3009H9.12964V95.8136Z" fill="white"/>
<path d="M63.4291 67.844C63.4291 82.696 74.1617 97.1145 94.109 97.1145C102.673 97.1145 111.888 94.1874 117.959 88.9838L111.021 75.8663C106.468 78.9017 101.156 81.5035 95.6267 81.5035C89.6642 81.5035 84.0269 78.3597 82.6176 71.5299H117.851C118.067 69.5785 118.284 67.6271 118.284 65.6758C118.284 50.1732 108.961 38.6819 92.4828 38.6819C74.4869 38.6819 63.4291 51.4742 63.4291 67.844ZM83.0512 60.7974C84.0269 56.3526 86.6287 52.4498 92.0492 52.4498C96.8192 52.4498 99.7463 56.2442 99.7463 60.7974H83.0512Z" fill="white"/>
<path d="M128.083 117.495H146.837V96.5724C146.837 93.7538 146.621 91.8024 146.621 91.8024H146.837C150.849 95.2715 155.835 97.1145 161.039 97.1145C175.891 97.1145 187.057 85.6231 187.057 67.9524C187.057 50.6069 177.084 38.6819 161.906 38.6819C155.185 38.6819 148.789 41.2837 144.994 46.3789H144.778C144.778 46.3789 144.994 44.6444 144.994 42.8014V39.9828H128.083V117.495ZM146.295 68.2776C146.295 58.6292 151.607 54.5096 157.245 54.5096C163.749 54.5096 168.194 59.9301 168.194 68.2776C168.194 76.8419 163.099 81.6119 157.245 81.6119C149.873 81.6119 146.295 74.999 146.295 68.2776Z" fill="white"/>
<path d="M196.685 95.8136H215.44V74.1317C215.44 63.9412 220.427 57.3283 230.834 57.3283C232.135 57.3283 233.978 57.4367 234.629 57.6535V39.2239C233.978 39.1155 233.219 39.0071 232.46 39.0071C224.113 39.0071 217.066 45.2948 214.681 52.8835H214.464C214.464 52.8835 214.681 51.2573 214.681 49.4144V39.9828H196.685V95.8136Z" fill="white"/>
<path d="M239.7 67.844C239.7 82.696 250.433 97.1145 270.38 97.1145C278.944 97.1145 288.159 94.1874 294.23 88.9838L287.292 75.8663C282.739 78.9017 277.427 81.5035 271.898 81.5035C265.935 81.5035 260.298 78.3597 258.889 71.5299H294.122C294.338 69.5785 294.555 67.6271 294.555 65.6758C294.555 50.1732 285.232 38.6819 268.754 38.6819C250.758 38.6819 239.7 51.4742 239.7 67.844ZM259.322 60.7974C260.298 56.3526 262.9 52.4498 268.32 52.4498C273.09 52.4498 276.017 56.2442 276.017 60.7974H259.322Z" fill="white"/>
<path d="M302.077 56.8946C302.077 79.8774 317.796 97.1145 342.73 97.1145C356.932 97.1145 367.123 91.152 373.952 84.1054L364.195 70.229C358.883 75.541 351.295 79.769 343.598 79.769C328.637 79.769 321.699 67.9524 321.699 56.461C321.699 45.2948 328.095 34.3455 343.598 34.3455C350.536 34.3455 358.016 37.923 363.003 42.2594L371.784 27.9493C364.195 20.4691 353.138 17 342.73 17C318.772 17 302.077 34.3455 302.077 56.8946Z" fill="white"/>
<path d="M377.329 68.0608C377.329 85.5147 391.422 97.1145 408.985 97.1145C426.547 97.1145 440.64 85.5147 440.64 68.0608C440.64 50.4985 426.547 38.6819 408.876 38.6819C391.422 38.6819 377.329 50.4985 377.329 68.0608ZM396.301 68.0608C396.301 59.6049 402.155 54.2928 408.985 54.2928C415.814 54.2928 421.669 59.6049 421.669 68.0608C421.669 76.4083 415.814 81.5035 408.985 81.5035C402.155 81.5035 396.301 76.4083 396.301 68.0608Z" fill="white"/>
<path d="M450.245 32.9362H468.567V18.3009H450.245V32.9362ZM450.029 95.8136H468.783V39.9828H450.029V95.8136Z" fill="white"/>
<path d="M481.366 95.8136H500.12V70.5542C500.12 62.6403 503.915 55.7021 512.262 55.7021C516.382 55.7021 518.442 57.8703 518.442 63.074V95.8136H537.196V59.6049C537.196 43.8855 528.415 38.6819 517.141 38.6819C507.275 38.6819 501.963 43.9939 499.362 48.3303H499.145C499.145 48.3303 499.362 46.7042 499.362 44.8612V39.9828H481.366V95.8136Z" fill="white"/>
</svg>
